<svg width="144" height="45" viewBox="0 0 144 45" fill="none" xmlns="http://www.w3.org/2000/svg">
<path d="M0 0.0478516H143.795V44.5206H0V0.0478516Z" fill="url(#paint0_linear_2_2)"/>
<mask id="mask0_2_2" style="mask-type:alpha" maskUnits="userSpaceOnUse" x="0" y="0" width="144" height="45">
<path d="M0 0.0478516H143.795V44.5206H0V0.0478516Z" fill="url(#paint1_linear_2_2)"/>
</mask>
<g mask="url(#mask0_2_2)">
<ellipse cx="136.579" cy="52.5127" rx="25.2012" ry="38.9469" transform="rotate(23.7158 136.579 52.5127)" fill="white"/>
</g>
<path d="M41.2293 24.8793V26.1301H36.7473V24.8793H41.2293ZM37.2337 17.6988V26.1301H35.6413V17.6988H37.2337ZM40.6445 21.1791V22.4009H36.7473V21.1791H40.6445ZM41.212 17.6988V18.9554H36.7473V17.6988H41.212ZM43.4182 19.8646L44.5358 21.8566L45.6708 19.8646H47.3328L45.4913 22.9337L47.408 26.1301H45.7461L44.5474 24.0397L43.3429 26.1301H41.681L43.5919 22.9337L41.7621 19.8646H43.4182ZM49.7475 21.0691V28.5391H48.2129V19.8646H49.6317L49.7475 21.0691ZM53.772 22.9337V23.0553C53.772 23.5108 53.718 23.9335 53.6099 24.3234C53.5057 24.7095 53.3512 25.0473 53.1466 25.3368C52.942 25.6225 52.6872 25.8464 52.3823 26.0085C52.0811 26.1668 51.7337 26.246 51.3399 26.246C50.9539 26.246 50.618 26.1726 50.3323 26.0259C50.0467 25.8754 49.8054 25.663 49.6085 25.3889C49.4116 25.1148 49.2533 24.7963 49.1337 24.4335C49.0179 24.0667 48.931 23.6672 48.8731 23.2348V22.8468C48.931 22.3874 49.0179 21.9705 49.1337 21.596C49.2533 21.2177 49.4116 20.8915 49.6085 20.6174C49.8054 20.3394 50.0447 20.1252 50.3266 19.9746C50.6122 19.824 50.9462 19.7488 51.3284 19.7488C51.726 19.7488 52.0754 19.824 52.3765 19.9746C52.6815 20.1252 52.9382 20.3414 53.1466 20.6232C53.3551 20.905 53.5115 21.2408 53.6157 21.6308C53.7199 22.0207 53.772 22.455 53.772 22.9337ZM52.2375 23.0553V22.9337C52.2375 22.6557 52.2124 22.399 52.1622 22.1635C52.112 21.9241 52.0348 21.7157 51.9306 21.5381C51.8264 21.3567 51.6912 21.2157 51.5252 21.1154C51.3592 21.015 51.1585 20.9648 50.923 20.9648C50.6875 20.9648 50.4848 21.0034 50.315 21.0806C50.1451 21.1578 50.0061 21.2679 49.898 21.4107C49.79 21.5535 49.705 21.7234 49.6433 21.9203C49.5853 22.1133 49.5467 22.3276 49.5274 22.5631V23.5243C49.5622 23.81 49.6297 24.0667 49.7301 24.2945C49.8305 24.5223 49.9772 24.7037 50.1702 24.8388C50.3671 24.9739 50.6219 25.0415 50.9346 25.0415C51.1701 25.0415 51.3708 24.9894 51.5368 24.8851C51.7028 24.7809 51.8379 24.6381 51.9422 24.4566C52.0464 24.2713 52.1217 24.059 52.168 23.8196C52.2143 23.5803 52.2375 23.3255 52.2375 23.0553ZM56.5111 17.2356V26.1301H54.9765V17.2356H56.5111ZM57.6981 23.0611V22.9395C57.6981 22.4801 57.7638 22.0573 57.895 21.6713C58.0263 21.2814 58.2174 20.9436 58.4683 20.6579C58.7192 20.3722 59.0262 20.1503 59.389 19.992C59.7519 19.8298 60.165 19.7488 60.6283 19.7488C61.0992 19.7488 61.5162 19.8298 61.8791 19.992C62.2458 20.1503 62.5546 20.3722 62.8056 20.6579C63.0565 20.9436 63.2476 21.2814 63.3789 21.6713C63.5101 22.0573 63.5757 22.4801 63.5757 22.9395V23.0611C63.5757 23.5166 63.5101 23.9393 63.3789 24.3292C63.2476 24.7153 63.0565 25.0531 62.8056 25.3426C62.5546 25.6283 62.2477 25.8503 61.8848 26.0085C61.522 26.1668 61.107 26.246 60.6398 26.246C60.1766 26.246 59.7616 26.1668 59.3948 26.0085C59.0281 25.8503 58.7192 25.6283 58.4683 25.3426C58.2174 25.0531 58.0263 24.7153 57.895 24.3292C57.7638 23.9393 57.6981 23.5166 57.6981 23.0611ZM59.2269 22.9395V23.0611C59.2269 23.3352 59.2539 23.5919 59.308 23.8312C59.362 24.0706 59.445 24.281 59.557 24.4624C59.6689 24.6439 59.8137 24.7867 59.9913 24.8909C60.1727 24.9913 60.3889 25.0415 60.6398 25.0415C60.8869 25.0415 61.0992 24.9913 61.2768 24.8909C61.4544 24.7867 61.5992 24.6439 61.7111 24.4624C61.8269 24.281 61.9119 24.0706 61.9659 23.8312C62.02 23.5919 62.047 23.3352 62.047 23.0611V22.9395C62.047 22.6692 62.02 22.4164 61.9659 22.1809C61.9119 21.9415 61.8269 21.7311 61.7111 21.5497C61.5992 21.3644 61.4525 21.2196 61.271 21.1154C61.0934 21.0073 60.8792 20.9532 60.6283 20.9532C60.3812 20.9532 60.1689 21.0073 59.9913 21.1154C59.8137 21.2196 59.6689 21.3644 59.557 21.5497C59.445 21.7311 59.362 21.9415 59.308 22.1809C59.2539 22.4164 59.2269 22.6692 59.2269 22.9395ZM66.2163 21.1443V26.1301H64.6876V19.8646H66.1352L66.2163 21.1443ZM68.1215 19.824L68.0983 21.2486C68.0134 21.2331 67.9168 21.2215 67.8088 21.2138C67.7045 21.2061 67.6061 21.2022 67.5134 21.2022C67.2779 21.2022 67.0714 21.2351 66.8938 21.3007C66.7162 21.3624 66.5676 21.4532 66.4479 21.5728C66.3321 21.6925 66.2433 21.8392 66.1816 22.0129C66.1198 22.1828 66.0851 22.3758 66.0773 22.592L65.7473 22.5515C65.7473 22.1538 65.7878 21.7852 65.8689 21.4454C65.9499 21.1057 66.0677 20.8085 66.2221 20.5537C66.3765 20.2989 66.5695 20.102 66.8012 19.963C67.0367 19.8202 67.3069 19.7488 67.6119 19.7488C67.6968 19.7488 67.7875 19.7565 67.884 19.7719C67.9844 19.7835 68.0635 19.8009 68.1215 19.824ZM71.6596 26.246C71.1847 26.246 70.7582 26.1687 70.3798 26.0143C70.0015 25.8599 69.6792 25.6457 69.4128 25.3716C69.1503 25.0936 68.9476 24.7713 68.8048 24.4045C68.6658 24.0339 68.5963 23.6363 68.5963 23.2116V22.98C68.5963 22.4974 68.6658 22.0593 68.8048 21.6655C68.9437 21.2679 69.1406 20.9262 69.3954 20.6405C69.6502 20.3549 69.9552 20.1348 70.3104 19.9804C70.6655 19.826 71.0574 19.7488 71.4859 19.7488C71.9298 19.7488 72.3217 19.824 72.6614 19.9746C73.0011 20.1213 73.2849 20.3298 73.5126 20.6C73.7404 20.8702 73.9122 21.1945 74.028 21.5728C74.1438 21.9473 74.2017 22.3623 74.2017 22.8179V23.4606H69.2912V22.4067H72.6961V22.2909C72.6884 22.0477 72.6421 21.8257 72.5572 21.625C72.4722 21.4204 72.341 21.2582 72.1634 21.1385C71.9858 21.015 71.7561 20.9532 71.4743 20.9532C71.2465 20.9532 71.0477 21.0034 70.8778 21.1038C70.7118 21.2003 70.5729 21.3393 70.4609 21.5207C70.3528 21.6983 70.2717 21.9106 70.2177 22.1577C70.1637 22.4048 70.1366 22.6789 70.1366 22.98V23.2116C70.1366 23.4741 70.1714 23.7173 70.2409 23.9413C70.3142 24.1652 70.4204 24.3601 70.5594 24.5261C70.7022 24.6883 70.8721 24.8157 71.0689 24.9083C71.2697 24.9971 71.4974 25.0415 71.7522 25.0415C72.0727 25.0415 72.3622 24.9797 72.6208 24.8562C72.8834 24.7288 73.1111 24.5416 73.3042 24.2945L74.0743 25.0936C73.9431 25.2866 73.7655 25.4719 73.5416 25.6495C73.3215 25.8271 73.0552 25.9719 72.7425 26.0838C72.4298 26.1919 72.0688 26.246 71.6596 26.246ZM78.9906 17.6988H80.3688L82.6735 24.0455L84.9725 17.6988H86.3564L83.2237 26.1301H82.1176L78.9906 17.6988ZM78.2958 17.6988H79.645L79.8882 23.5301V26.1301H78.2958V17.6988ZM85.6963 17.6988H87.0513V26.1301H85.4589V23.5301L85.6963 17.6988ZM88.2848 23.0611V22.9395C88.2848 22.4801 88.3504 22.0573 88.4816 21.6713C88.6129 21.2814 88.804 20.9436 89.0549 20.6579C89.3059 20.3722 89.6128 20.1503 89.9757 19.992C90.3385 19.8298 90.7516 19.7488 91.2149 19.7488C91.6858 19.7488 92.1028 19.8298 92.4657 19.992C92.8324 20.1503 93.1412 20.3722 93.3922 20.6579C93.6431 20.9436 93.8342 21.2814 93.9655 21.6713C94.0967 22.0573 94.1623 22.4801 94.1623 22.9395V23.0611C94.1623 23.5166 94.0967 23.9393 93.9655 24.3292C93.8342 24.7153 93.6431 25.0531 93.3922 25.3426C93.1412 25.6283 92.8343 25.8503 92.4715 26.0085C92.1086 26.1668 91.6936 26.246 91.2264 26.246C90.7632 26.246 90.3482 26.1668 89.9814 26.0085C89.6147 25.8503 89.3059 25.6283 89.0549 25.3426C88.804 25.0531 88.6129 24.7153 88.4816 24.3292C88.3504 23.9393 88.2848 23.5166 88.2848 23.0611ZM89.8135 22.9395V23.0611C89.8135 23.3352 89.8405 23.5919 89.8946 23.8312C89.9486 24.0706 90.0316 24.281 90.1436 24.4624C90.2555 24.6439 90.4003 24.7867 90.5779 24.8909C90.7593 24.9913 90.9755 25.0415 91.2264 25.0415C91.4735 25.0415 91.6858 24.9913 91.8634 24.8909C92.041 24.7867 92.1858 24.6439 92.2977 24.4624C92.4135 24.281 92.4985 24.0706 92.5525 23.8312C92.6066 23.5919 92.6336 23.3352 92.6336 23.0611V22.9395C92.6336 22.6692 92.6066 22.4164 92.5525 22.1809C92.4985 21.9415 92.4135 21.7311 92.2977 21.5497C92.1858 21.3644 92.0391 21.2196 91.8576 21.1154C91.6801 21.0073 91.4658 20.9532 91.2149 20.9532C90.9678 20.9532 90.7555 21.0073 90.5779 21.1154C90.4003 21.2196 90.2555 21.3644 90.1436 21.5497C90.0316 21.7311 89.9486 21.9415 89.8946 22.1809C89.8405 22.4164 89.8135 22.6692 89.8135 22.9395ZM96.8029 21.1443V26.1301H95.2742V19.8646H96.7218L96.8029 21.1443ZM98.7081 19.824L98.6849 21.2486C98.6 21.2331 98.5035 21.2215 98.3954 21.2138C98.2911 21.2061 98.1927 21.2022 98.1 21.2022C97.8645 21.2022 97.658 21.2351 97.4804 21.3007C97.3028 21.3624 97.1542 21.4532 97.0345 21.5728C96.9187 21.6925 96.8299 21.8392 96.7682 22.0129C96.7064 22.1828 96.6717 22.3758 96.6639 22.592L96.3339 22.5515C96.3339 22.1538 96.3744 21.7852 96.4555 21.4454C96.5365 21.1057 96.6543 20.8085 96.8087 20.5537C96.9631 20.2989 97.1561 20.102 97.3878 19.963C97.6233 19.8202 97.8935 19.7488 98.1985 19.7488C98.2834 19.7488 98.3741 19.7565 98.4706 19.7719C98.571 19.7835 98.6502 19.8009 98.7081 19.824ZM102.246 26.246C101.771 26.246 101.345 26.1687 100.966 26.0143C100.588 25.8599 100.266 25.6457 99.9994 25.3716C99.7369 25.0936 99.5342 24.7713 99.3914 24.4045C99.2524 24.0339 99.1829 23.6363 99.1829 23.2116V22.98C99.1829 22.4974 99.2524 22.0593 99.3914 21.6655C99.5303 21.2679 99.7272 20.9262 99.982 20.6405C100.237 20.3549 100.542 20.1348 100.897 19.9804C101.252 19.826 101.644 19.7488 102.072 19.7488C102.516 19.7488 102.908 19.824 103.248 19.9746C103.588 20.1213 103.871 20.3298 104.099 20.6C104.327 20.8702 104.499 21.1945 104.615 21.5728C104.73 21.9473 104.788 22.3623 104.788 22.8179V23.4606H99.8778V22.4067H103.283V22.2909C103.275 22.0477 103.229 21.8257 103.144 21.625C103.059 21.4204 102.928 21.2582 102.75 21.1385C102.572 21.015 102.343 20.9532 102.061 20.9532C101.833 20.9532 101.634 21.0034 101.464 21.1038C101.298 21.2003 101.159 21.3393 101.048 21.5207C100.939 21.6983 100.858 21.9106 100.804 22.1577C100.75 22.4048 100.723 22.6789 100.723 22.98V23.2116C100.723 23.4741 100.758 23.7173 100.827 23.9413C100.901 24.1652 101.007 24.3601 101.146 24.5261C101.289 24.6883 101.459 24.8157 101.656 24.9083C101.856 24.9971 102.084 25.0415 102.339 25.0415C102.659 25.0415 102.949 24.9797 103.207 24.8562C103.47 24.7288 103.698 24.5416 103.891 24.2945L104.661 25.0936C104.53 25.2866 104.352 25.4719 104.128 25.6495C103.908 25.8271 103.642 25.9719 103.329 26.0838C103.016 26.1919 102.655 26.246 102.246 26.246Z" fill="#23212A"/>
<defs>
<linearGradient id="paint0_linear_2_2" x1="-4.07667" y1="9.68361" x2="168.626" y2="49.3385" gradientUnits="userSpaceOnUse">
<stop stop-color="#FFB629"/>
<stop offset="0.507189" stop-color="#FFDA56"/>
<stop offset="1" stop-color="#FFD7A6"/>
</linearGradient>
<linearGradient id="paint1_linear_2_2" x1="-4.07667" y1="9.68361" x2="168.626" y2="49.3385" gradientUnits="userSpaceOnUse">
<stop stop-color="#FFB629"/>
<stop offset="0.507189" stop-color="#FFDA56"/>
<stop offset="1" stop-color="#FFD7A6"/>
</linearGradient>
</defs>
</svg>
