<svg width="144" height="45" viewBox="0 0 144 45" fill="none" xmlns="http://www.w3.org/2000/svg">
<path d="M0 0.0478516H143.795V44.5206H0V0.0478516Z" fill="url(#paint0_linear_2_2)"/>
<mask id="mask0_2_2" style="mask-type:alpha" maskUnits="userSpaceOnUse" x="0" y="0" width="144" height="45">
<path d="M0 0.0478516H143.795V44.5206H0V0.0478516Z" fill="url(#paint1_linear_2_2)"/>
</mask>
<g mask="url(#mask0_2_2)">
<ellipse cx="136.579" cy="52.5127" rx="25.2012" ry="38.9469" transform="rotate(23.7158 136.579 52.5127)" fill="white"/>
</g>
<path d="M41.2293 24.8793V26.1301H36.7473V24.8793H41.2293ZM37.2337 17.6988V26.1301H35.6413V17.6988H37.2337ZM40.6445 21.1791V22.4009H36.7473V21.1791H40.6445ZM41.212 17.6988V18.9554H36.7473V17.6988H41.212ZM43.4182 19.8646L44.5358 21.8566L45.6708 19.8646H47.3328L45.4913 22.9337L47.408 26.1301H45.7461L44.5474 24.0397L43.3429 26.1301H41.681L43.5919 22.9337L41.7621 19.8646H43.4182ZM49.7475 21.0691V28.5391H48.2129V19.8646H49.6317L49.7475 21.0691ZM53.772 22.9337V23.0553C53.772 23.5108 53.718 23.9335 53.6099 24.3234C53.5057 24.7095 53.3512 25.0473 53.1466 25.3368C52.942 25.6225 52.6872 25.8464 52.3823 26.0085C52.0811 26.1668 51.7337 26.246 51.3399 26.246C50.9539 26.246 50.618 26.1726 50.3323 26.0259C50.0467 25.8754 49.8054 25.663 49.6085 25.3889C49.4116 25.1148 49.2533 24.7963 49.1337 24.4335C49.0179 24.0667 48.931 23.6672 48.8731 23.2348V22.8468C48.931 22.3874 49.0179 21.9705 49.1337 21.596C49.2533 21.2177 49.4116 20.8915 49.6085 20.6174C49.8054 20.3394 50.0447 20.1252 50.3266 19.9746C50.6122 19.824 50.9462 19.7488 51.3284 19.7488C51.726 19.7488 52.0754 19.824 52.3765 19.9746C52.6815 20.1252 52.9382 20.3414 53.1466 20.6232C53.3551 20.905 53.5115 21.2408 53.6157 21.6308C53.7199 22.0207 53.772 22.455 53.772 22.9337ZM52.2375 23.0553V22.9337C52.2375 22.6557 52.2124 22.399 52.1622 22.1635C52.112 21.9241 52.0348 21.7157 51.9306 21.5381C51.8264 21.3567 51.6912 21.2157 51.5252 21.1154C51.3592 21.015 51.1585 20.9648 50.923 20.9648C50.6875 20.9648 50.4848 21.0034 50.315 21.0806C50.1451 21.1578 50.0061 21.2679 49.898 21.4107C49.79 21.5535 49.705 21.7234 49.6433 21.9203C49.5853 22.1133 49.5467 22.3276 49.5274 22.5631V23.5243C49.5622 23.81 49.6297 24.0667 49.7301 24.2945C49.8305 24.5223 49.9772 24.7037 50.1702 24.8388C50.3671 24.9739 50.6219 25.0415 50.9346 25.0415C51.1701 25.0415 51.3708 24.9894 51.5368 24.8851C51.7028 24.7809 51.8379 24.6381 51.9422 24.4566C52.0464 24.2713 52.1217 24.059 52.168 23.8196C52.2143 23.5803 52.2375 23.3255 52.2375 23.0553ZM56.5111 17.2356V26.1301H54.9765V17.2356H56.5111ZM57.6981 23.0611V22.9395C57.6981 22.4801 57.7638 22.0573 57.895 21.6713C58.0263 21.2814 58.2174 20.9436 58.4683 20.6579C58.7192 20.3722 59.0262 20.1503 59.389 19.992C59.7519 19.8298 60.165 19.7488 60.6283 19.7488C61.0992 19.7488 61.5162 19.8298 61.8791 19.992C62.2458 20.1503 62.5546 20.3722 62.8056 20.6579C63.0565 20.9436 63.2476 21.2814 63.3789 21.6713C63.5101 22.0573 63.5757 22.4801 63.5757 22.9395V23.0611C63.5757 23.5166 63.5101 23.9393 63.3789 24.3292C63.2476 24.7153 63.0565 25.0531 62.8056 25.3426C62.5546 25.6283 62.2477 25.8503 61.8848 26.0085C61.522 26.1668 61.107 26.246 60.6398 26.246C60.1766 26.246 59.7616 26.1668 59.3948 26.0085C59.0281 25.8503 58.7192 25.6283 58.4683 25.3426C58.2174 25.0531 58.0263 24.7153 57.895 24.3292C57.7638 23.9393 57.6981 23.5166 57.6981 23.0611ZM59.2269 22.9395V23.0611C59.2269 23.3352 59.2539 23.5919 59.308 23.8312C59.362 24.0706 59.445 24.281 59.557 24.4624C59.6689 24.6439 59.8137 24.7867 59.9913 24.8909C60.1727 24.9913 60.3889 25.0415 60.6398 25.0415C60.8869 25.0415 61.0992 24.9913 61.2768 24.8909C61.4544 24.7867 61.5992 24.6439 61.7111 24.4624C61.8269 24.281 61.9119 24.0706 61.9659 23.8312C62.02 23.5919 62.047 23.3352 62.047 23.0611V22.9395C62.047 22.6692 62.02 22.4164 61.9659 22.1809C61.9119 21.9415 61.8269 21.7311 61.7111 21.5497C61.5992 21.3644 61.4525 21.2196 61.271 21.1154C61.0934 21.0073 60.8792 20.9532 60.6283 20.9532C60.3812 20.9532 60.1689 21.0073 59.9913 21.1154C59.8137 21.2196 59.6689 21.3644 59.557 21.5497C59.445 21.7311 59.362 21.9415 59.308 22.1809C59.2539 22.4164 59.2269 22.6692 59.2269 22.9395ZM66.2163 21.1443V26.1301H64.6876V19.8646H66.1352L66.2163 21.1443ZM68.1215 19.824L68.0983 21.2486C68.0134 21.2331 67.9168 21.2215 67.8088 21.2138C67.7045 21.2061 67.6061 21.2022 67.5134 21.2022C67.2779 21.2022 67.0714 21.2351 66.8938 21.3007C66.7162 21.3624 66.5676 21.4532 66.4479 21.5728C66.3321 21.6925 66.2433 21.8392 66.1816 22.0129C66.1198 22.1828 66.0851 22.3758 66.0773 22.592L65.7473 22.5515C65.7473 22.1538 65.7878 21.7852 65.8689 21.4454C65.9499 21.1057 66.0677 20.8085 66.2221 20.5537C66.3765 20.2989 66.5695 20.102 66.8012 19.963C67.0367 19.8202 67.3069 19.7488 67.6119 19.7488C67.6968 19.7488 67.7875 19.7565 67.884 19.7719C67.9844 19.7835 68.0635 19.8009 68.1215 19.824ZM71.6596 26.246C71.1847 26.246 70.7582 26.1687 70.3798 26.0143C70.0015 25.8599 69.6792 25.6457 69.4128 25.3716C69.1503 25.0936 68.9476 24.7713 68.8048 24.4045C68.6658 24.0339 68.5963 23.6363 68.5963 23.2116V22.98C68.5963 22.4974 68.6658 22.0593 68.8048 21.6655C68.9437 21.2679 69.1406 20.9262 69.3954 20.6405C69.6502 20.3549 69.9552 20.1348 70.3104 19.9804C70.6655 19.826 71.0574 19.7488 71.4859 19.7488C71.9298 19.7488 72.3217 19.824 72.6614 19.9746C73.0011 20.1213 73.2849 20.3298 73.5126 20.6C73.7404 20.8702 73.9122 21.1945 74.028 21.5728C74.1438 21.9473 74.2017 22.3623 74.2017 22.8179V23.4606H69.2912V22.4067H72.6961V22.2909C72.6884 22.0477 72.6421 21.8257 72.5572 21.625C72.4722 21.4204 72.341 21.2582 72.1634 21.1385C71.9858 21.015 71.7561 20.9532 71.4743 20.9532C71.2465 20.9532 71.0477 21.0034 70.8778 21.1038C70.7118 21.2003 70.5729 21.3393 70.4609 21.5207C70.3528 21.6983 70.2717 21.9106 70.2177 22.1577C70.1637 22.4048 70.1366 22.6789 70.1366 22.98V23.2116C70.1366 23.4741 70.1714 23.7173 70.2409 23.9413C70.3142 24.1652 70.4204 24.3601 70.5594 24.5261C70.7022 24.6883 70.8721 24.8157 71.0689 24.9083C71.2697 24.9971 71.4974 25.0415 71.7522 25.0415C72.0727 25.0415 72.3622 24.9797 72.6208 24.8562C72.8834 24.7288 73.1111 24.5416 73.3042 24.2945L74.0743 25.0936C73.9431 25.2866 73.7655 25.4719 73.5416 25.6495C73.3215 25.8271 73.0552 25.9719 72.7425 26.0838C72.4298 26.1919 72.0688 26.246 71.6596 26.246ZM83.6464 24.8793V26.1301H79.4076V24.8793H83.6464ZM79.8882 17.6988V26.1301H78.2958V17.6988H79.8882ZM87.4104 26.246C86.9355 26.246 86.5089 26.1687 86.1306 26.0143C85.7523 25.8599 85.4299 25.6457 85.1636 25.3716C84.901 25.0936 84.6984 24.7713 84.5555 24.4045C84.4166 24.0339 84.3471 23.6363 84.3471 23.2116V22.98C84.3471 22.4974 84.4166 22.0593 84.5555 21.6655C84.6945 21.2679 84.8914 20.9262 85.1462 20.6405C85.401 20.3549 85.706 20.1348 86.0611 19.9804C86.4163 19.826 86.8081 19.7488 87.2366 19.7488C87.6806 19.7488 88.0724 19.824 88.4122 19.9746C88.7519 20.1213 89.0356 20.3298 89.2634 20.6C89.4912 20.8702 89.663 21.1945 89.7788 21.5728C89.8946 21.9473 89.9525 22.3623 89.9525 22.8179V23.4606H85.042V22.4067H88.4469V22.2909C88.4392 22.0477 88.3929 21.8257 88.3079 21.625C88.223 21.4204 88.0917 21.2582 87.9142 21.1385C87.7366 21.015 87.5069 20.9532 87.2251 20.9532C86.9973 20.9532 86.7985 21.0034 86.6286 21.1038C86.4626 21.2003 86.3236 21.3393 86.2117 21.5207C86.1036 21.6983 86.0225 21.9106 85.9685 22.1577C85.9144 22.4048 85.8874 22.6789 85.8874 22.98V23.2116C85.8874 23.4741 85.9221 23.7173 85.9916 23.9413C86.065 24.1652 86.1711 24.3601 86.3101 24.5261C86.453 24.6883 86.6228 24.8157 86.8197 24.9083C87.0205 24.9971 87.2482 25.0415 87.503 25.0415C87.8234 25.0415 88.113 24.9797 88.3716 24.8562C88.6341 24.7288 88.8619 24.5416 89.0549 24.2945L89.8251 25.0936C89.6938 25.2866 89.5163 25.4719 89.2923 25.6495C89.0723 25.8271 88.8059 25.9719 88.4932 26.0838C88.1805 26.1919 87.8196 26.246 87.4104 26.246ZM94.4229 24.4161C94.4229 24.2848 94.3882 24.1671 94.3187 24.0629C94.2492 23.9586 94.1179 23.864 93.9249 23.7791C93.7358 23.6903 93.4578 23.6073 93.0911 23.5301C92.7668 23.4606 92.4676 23.3738 92.1935 23.2695C91.9194 23.1653 91.6839 23.0398 91.487 22.8931C91.2901 22.7426 91.1357 22.5669 91.0238 22.3662C90.9157 22.1616 90.8616 21.9261 90.8616 21.6597C90.8616 21.4011 90.9176 21.1578 91.0296 20.9301C91.1415 20.6984 91.3037 20.4958 91.516 20.322C91.7283 20.1445 91.987 20.0055 92.2919 19.9051C92.5969 19.8009 92.9405 19.7488 93.3227 19.7488C93.8554 19.7488 94.3129 19.8356 94.6951 20.0093C95.0811 20.1831 95.3765 20.4224 95.5811 20.7274C95.7857 21.0285 95.888 21.3682 95.888 21.7466H94.3592C94.3592 21.5806 94.3206 21.43 94.2434 21.2949C94.1701 21.1598 94.0562 21.0517 93.9018 20.9706C93.7473 20.8857 93.5524 20.8432 93.3169 20.8432C93.1046 20.8432 92.9251 20.878 92.7784 20.9474C92.6355 21.0169 92.5274 21.1077 92.4541 21.2196C92.3807 21.3316 92.3441 21.4551 92.3441 21.5902C92.3441 21.6906 92.3634 21.7813 92.402 21.8624C92.4444 21.9396 92.512 22.011 92.6046 22.0766C92.6973 22.1423 92.8228 22.2021 92.981 22.2562C93.1432 22.3102 93.342 22.3623 93.5775 22.4125C94.0446 22.5052 94.4519 22.6287 94.7993 22.7831C95.1506 22.9337 95.4247 23.1344 95.6216 23.3853C95.8185 23.6363 95.9169 23.9567 95.9169 24.3466C95.9169 24.6246 95.8571 24.8793 95.7374 25.111C95.6177 25.3387 95.444 25.5376 95.2163 25.7074C94.9885 25.8773 94.7163 26.0105 94.3998 26.107C94.0832 26.1996 93.7261 26.246 93.3285 26.246C92.7533 26.246 92.2668 26.1437 91.8692 25.9391C91.4716 25.7306 91.1705 25.4681 90.9659 25.1515C90.7613 24.8311 90.659 24.4991 90.659 24.1555H92.124C92.1356 24.3987 92.2012 24.5937 92.3209 24.7404C92.4406 24.8871 92.5911 24.9932 92.7726 25.0589C92.9579 25.1206 93.1528 25.1515 93.3574 25.1515C93.5891 25.1515 93.784 25.1206 93.9423 25.0589C94.1006 24.9932 94.2203 24.9064 94.3013 24.7983C94.3824 24.6863 94.4229 24.5589 94.4229 24.4161ZM100.526 24.4161C100.526 24.2848 100.492 24.1671 100.422 24.0629C100.353 23.9586 100.221 23.864 100.028 23.7791C99.8392 23.6903 99.5612 23.6073 99.1945 23.5301C98.8702 23.4606 98.571 23.3738 98.2969 23.2695C98.0228 23.1653 97.7873 23.0398 97.5905 22.8931C97.3936 22.7426 97.2391 22.5669 97.1272 22.3662C97.0191 22.1616 96.9651 21.9261 96.9651 21.6597C96.9651 21.4011 97.021 21.1578 97.133 20.9301C97.2449 20.6984 97.4071 20.4958 97.6194 20.322C97.8317 20.1445 98.0904 20.0055 98.3954 19.9051C98.7003 19.8009 99.0439 19.7488 99.4261 19.7488C99.9589 19.7488 100.416 19.8356 100.799 20.0093C101.185 20.1831 101.48 20.4224 101.684 20.7274C101.889 21.0285 101.991 21.3682 101.991 21.7466H100.463C100.463 21.5806 100.424 21.43 100.347 21.2949C100.273 21.1598 100.16 21.0517 100.005 20.9706C99.8508 20.8857 99.6558 20.8432 99.4203 20.8432C99.208 20.8432 99.0285 20.878 98.8818 20.9474C98.7389 21.0169 98.6309 21.1077 98.5575 21.2196C98.4842 21.3316 98.4475 21.4551 98.4475 21.5902C98.4475 21.6906 98.4668 21.7813 98.5054 21.8624C98.5479 21.9396 98.6154 22.011 98.7081 22.0766C98.8007 22.1423 98.9262 22.2021 99.0845 22.2562C99.2466 22.3102 99.4454 22.3623 99.6809 22.4125C100.148 22.5052 100.555 22.6287 100.903 22.7831C101.254 22.9337 101.528 23.1344 101.725 23.3853C101.922 23.6363 102.02 23.9567 102.02 24.3466C102.02 24.6246 101.961 24.8793 101.841 25.111C101.721 25.3387 101.547 25.5376 101.32 25.7074C101.092 25.8773 100.82 26.0105 100.503 26.107C100.187 26.1996 99.8295 26.246 99.4319 26.246C98.8567 26.246 98.3703 26.1437 97.9726 25.9391C97.575 25.7306 97.2739 25.4681 97.0693 25.1515C96.8647 24.8311 96.7624 24.4991 96.7624 24.1555H98.2274C98.239 24.3987 98.3046 24.5937 98.4243 24.7404C98.544 24.8871 98.6946 24.9932 98.876 25.0589C99.0613 25.1206 99.2563 25.1515 99.4609 25.1515C99.6925 25.1515 99.8874 25.1206 100.046 25.0589C100.204 24.9932 100.324 24.9064 100.405 24.7983C100.486 24.6863 100.526 24.5589 100.526 24.4161Z" fill="#23212A"/>
<defs>
<linearGradient id="paint0_linear_2_2" x1="-4.07667" y1="9.68361" x2="168.626" y2="49.3385" gradientUnits="userSpaceOnUse">
<stop stop-color="#FFB629"/>
<stop offset="0.507189" stop-color="#FFDA56"/>
<stop offset="1" stop-color="#FFD7A6"/>
</linearGradient>
<linearGradient id="paint1_linear_2_2" x1="-4.07667" y1="9.68361" x2="168.626" y2="49.3385" gradientUnits="userSpaceOnUse">
<stop stop-color="#FFB629"/>
<stop offset="0.507189" stop-color="#FFDA56"/>
<stop offset="1" stop-color="#FFD7A6"/>
</linearGradient>
</defs>
</svg>
