<svg width="144" height="45" viewBox="0 0 144 45" fill="none" xmlns="http://www.w3.org/2000/svg">
<path d="M0 0.0478516H143.795V44.5206H0V0.0478516Z" fill="url(#paint0_linear_2_2)"/>
<mask id="mask0_2_2" style="mask-type:alpha" maskUnits="userSpaceOnUse" x="0" y="0" width="144" height="45">
<path d="M0 0.0478516H143.795V44.5206H0V0.0478516Z" fill="url(#paint1_linear_2_2)"/>
</mask>
<g mask="url(#mask0_2_2)">
<ellipse cx="136.579" cy="52.5127" rx="25.2012" ry="38.9469" transform="rotate(23.7158 136.579 52.5127)" fill="white"/>
</g>
<path d="M36.2174 23.9413C36.2174 23.7791 36.1923 23.6343 36.1422 23.5069C36.0958 23.3757 36.009 23.2579 35.8816 23.1537C35.758 23.0456 35.5824 22.9414 35.3546 22.841C35.1307 22.7368 34.8412 22.6287 34.486 22.5167C34.0922 22.3932 33.7255 22.2542 33.3858 22.0998C33.0461 21.9454 32.7469 21.7659 32.4882 21.5613C32.2334 21.3567 32.0346 21.1212 31.8918 20.8548C31.7489 20.5846 31.6775 20.2719 31.6775 19.9167C31.6775 19.5693 31.7509 19.2527 31.8976 18.967C32.0481 18.6813 32.2604 18.4362 32.5345 18.2316C32.8086 18.0231 33.131 17.8629 33.5016 17.751C33.8761 17.639 34.2891 17.583 34.7408 17.583C35.3662 17.583 35.9067 17.6969 36.3622 17.9247C36.8216 18.1525 37.1768 18.4613 37.4277 18.8512C37.6786 19.2411 37.8041 19.6793 37.8041 20.1657H36.2174C36.2174 19.9032 36.1615 19.6716 36.0495 19.4708C35.9414 19.2701 35.7754 19.1118 35.5515 18.996C35.3315 18.8802 35.0535 18.8223 34.7176 18.8223C34.3934 18.8223 34.1231 18.8705 33.9069 18.967C33.6946 19.0635 33.5344 19.1948 33.4263 19.3608C33.3221 19.5268 33.27 19.7121 33.27 19.9167C33.27 20.0711 33.3066 20.2101 33.38 20.3336C33.4533 20.4533 33.5634 20.5672 33.7101 20.6753C33.8568 20.7795 34.0382 20.878 34.2544 20.9706C34.4744 21.0594 34.7292 21.1482 35.0188 21.237C35.482 21.376 35.8874 21.5304 36.2348 21.7002C36.5861 21.8701 36.8776 22.0631 37.1092 22.2793C37.3447 22.4955 37.5204 22.7387 37.6362 23.0089C37.7558 23.2792 37.8157 23.5861 37.8157 23.9297C37.8157 24.2926 37.7443 24.6168 37.6014 24.9025C37.4586 25.1882 37.254 25.4314 36.9876 25.6321C36.7212 25.8329 36.4008 25.9854 36.0263 26.0896C35.6557 26.1938 35.2407 26.246 34.7813 26.246C34.3721 26.246 33.9668 26.1919 33.5653 26.0838C33.1677 25.9719 32.8067 25.8059 32.4824 25.5858C32.1581 25.3619 31.8995 25.0801 31.7065 24.7404C31.5134 24.3968 31.4169 23.9953 31.4169 23.5359H33.0152C33.0152 23.8023 33.0576 24.03 33.1426 24.2192C33.2314 24.4045 33.3549 24.557 33.5132 24.6767C33.6753 24.7925 33.8645 24.8774 34.0807 24.9315C34.2969 24.9855 34.5304 25.0125 34.7813 25.0125C35.1056 25.0125 35.372 24.9681 35.5805 24.8793C35.7928 24.7867 35.9511 24.6593 36.0553 24.4972C36.1634 24.335 36.2174 24.1497 36.2174 23.9413ZM40.4273 17.2356V26.1301H38.8928V17.2356H40.4273ZM40.1841 22.7715H39.7324C39.7324 22.3353 39.7903 21.9338 39.9061 21.5671C40.0219 21.2003 40.186 20.8818 40.3983 20.6116C40.6107 20.3375 40.8635 20.1252 41.1569 19.9746C41.4542 19.824 41.7823 19.7488 42.1414 19.7488C42.4502 19.7488 42.7301 19.7932 42.981 19.882C43.2358 19.9669 43.4539 20.1039 43.6354 20.2931C43.8168 20.4823 43.9558 20.7293 44.0523 21.0343C44.1527 21.3354 44.2029 21.7022 44.2029 22.1345V26.1301H42.6625V22.123C42.6625 21.8334 42.6201 21.6057 42.5351 21.4397C42.4502 21.2698 42.3286 21.1482 42.1703 21.0748C42.0159 21.0015 41.8248 20.9648 41.597 20.9648C41.35 20.9648 41.1376 21.0131 40.96 21.1096C40.7825 21.2022 40.6358 21.3316 40.52 21.4976C40.408 21.6636 40.3231 21.8547 40.2652 22.0708C40.2111 22.287 40.1841 22.5206 40.1841 22.7715ZM45.2799 23.0611V22.9395C45.2799 22.4801 45.3456 22.0573 45.4768 21.6713C45.6081 21.2814 45.7992 20.9436 46.0501 20.6579C46.301 20.3722 46.6079 20.1503 46.9708 19.992C47.3337 19.8298 47.7468 19.7488 48.21 19.7488C48.681 19.7488 49.0979 19.8298 49.4608 19.992C49.8276 20.1503 50.1364 20.3722 50.3873 20.6579C50.6383 20.9436 50.8294 21.2814 50.9606 21.6713C51.0919 22.0573 51.1575 22.4801 51.1575 22.9395V23.0611C51.1575 23.5166 51.0919 23.9393 50.9606 24.3292C50.8294 24.7153 50.6383 25.0531 50.3873 25.3426C50.1364 25.6283 49.8295 25.8503 49.4666 26.0085C49.1037 26.1668 48.6887 26.246 48.2216 26.246C47.7584 26.246 47.3434 26.1668 46.9766 26.0085C46.6099 25.8503 46.301 25.6283 46.0501 25.3426C45.7992 25.0531 45.6081 24.7153 45.4768 24.3292C45.3456 23.9393 45.2799 23.5166 45.2799 23.0611ZM46.8087 22.9395V23.0611C46.8087 23.3352 46.8357 23.5919 46.8897 23.8312C46.9438 24.0706 47.0268 24.281 47.1388 24.4624C47.2507 24.6439 47.3955 24.7867 47.5731 24.8909C47.7545 24.9913 47.9707 25.0415 48.2216 25.0415C48.4687 25.0415 48.681 24.9913 48.8586 24.8909C49.0362 24.7867 49.1809 24.6439 49.2929 24.4624C49.4087 24.281 49.4936 24.0706 49.5477 23.8312C49.6017 23.5919 49.6288 23.3352 49.6288 23.0611V22.9395C49.6288 22.6692 49.6017 22.4164 49.5477 22.1809C49.4936 21.9415 49.4087 21.7311 49.2929 21.5497C49.1809 21.3644 49.0342 21.2196 48.8528 21.1154C48.6752 21.0073 48.461 20.9532 48.21 20.9532C47.963 20.9532 47.7506 21.0073 47.5731 21.1154C47.3955 21.2196 47.2507 21.3644 47.1388 21.5497C47.0268 21.7311 46.9438 21.9415 46.8897 22.1809C46.8357 22.4164 46.8087 22.6692 46.8087 22.9395ZM54.0123 24.6246L55.3847 19.8646H56.3576L56.068 21.5091L54.6841 26.1301H53.8444L54.0123 24.6246ZM53.2538 19.8646L54.2845 24.6361L54.3772 26.1301H53.4101L51.7655 19.8646H53.2538ZM57.6315 24.5666L58.6391 19.8646H60.1216L58.4886 26.1301H57.5215L57.6315 24.5666ZM56.5081 19.8646L57.869 24.5782L58.0485 26.1301H57.2088L55.8133 21.5091L55.5295 19.8646H56.5081ZM67.3368 23.0553H65.1653V21.8045H67.3368C67.692 21.8045 67.9796 21.7466 68.1996 21.6308C68.4235 21.5111 68.5876 21.3489 68.6918 21.1443C68.7961 20.9359 68.8482 20.6984 68.8482 20.4321C68.8482 20.1734 68.7961 19.9321 68.6918 19.7082C68.5876 19.4843 68.4235 19.3029 68.1996 19.1639C67.9796 19.0249 67.692 18.9554 67.3368 18.9554H65.6864V26.1301H64.094V17.6988H67.3368C67.9931 17.6988 68.5529 17.8166 69.0161 18.0521C69.4832 18.2837 69.8384 18.6061 70.0816 19.0191C70.3287 19.4283 70.4522 19.8955 70.4522 20.4205C70.4522 20.9648 70.3287 21.4339 70.0816 21.8276C69.8384 22.2214 69.4832 22.5245 69.0161 22.7368C68.5529 22.9491 67.9931 23.0553 67.3368 23.0553ZM73.1159 21.1443V26.1301H71.5872V19.8646H73.0349L73.1159 21.1443ZM75.0211 19.824L74.9979 21.2486C74.913 21.2331 74.8165 21.2215 74.7084 21.2138C74.6042 21.2061 74.5057 21.2022 74.4131 21.2022C74.1776 21.2022 73.971 21.2351 73.7935 21.3007C73.6159 21.3624 73.4672 21.4532 73.3476 21.5728C73.2318 21.6925 73.143 21.8392 73.0812 22.0129C73.0194 22.1828 72.9847 22.3758 72.977 22.592L72.6469 22.5515C72.6469 22.1538 72.6874 21.7852 72.7685 21.4454C72.8496 21.1057 72.9673 20.8085 73.1217 20.5537C73.2762 20.2989 73.4692 20.102 73.7008 19.963C73.9363 19.8202 74.2065 19.7488 74.5115 19.7488C74.5964 19.7488 74.6872 19.7565 74.7837 19.7719C74.884 19.7835 74.9632 19.8009 75.0211 19.824ZM75.4264 23.0611V22.9395C75.4264 22.4801 75.4921 22.0573 75.6233 21.6713C75.7546 21.2814 75.9457 20.9436 76.1966 20.6579C76.4475 20.3722 76.7544 20.1503 77.1173 19.992C77.4802 19.8298 77.8933 19.7488 78.3565 19.7488C78.8275 19.7488 79.2445 19.8298 79.6073 19.992C79.9741 20.1503 80.2829 20.3722 80.5339 20.6579C80.7848 20.9436 80.9759 21.2814 81.1071 21.6713C81.2384 22.0573 81.304 22.4801 81.304 22.9395V23.0611C81.304 23.5166 81.2384 23.9393 81.1071 24.3292C80.9759 24.7153 80.7848 25.0531 80.5339 25.3426C80.2829 25.6283 79.976 25.8503 79.6131 26.0085C79.2503 26.1668 78.8352 26.246 78.3681 26.246C77.9049 26.246 77.4899 26.1668 77.1231 26.0085C76.7564 25.8503 76.4475 25.6283 76.1966 25.3426C75.9457 25.0531 75.7546 24.7153 75.6233 24.3292C75.4921 23.9393 75.4264 23.5166 75.4264 23.0611ZM76.9552 22.9395V23.0611C76.9552 23.3352 76.9822 23.5919 77.0363 23.8312C77.0903 24.0706 77.1733 24.281 77.2853 24.4624C77.3972 24.6439 77.542 24.7867 77.7196 24.8909C77.901 24.9913 78.1172 25.0415 78.3681 25.0415C78.6152 25.0415 78.8275 24.9913 79.0051 24.8909C79.1827 24.7867 79.3275 24.6439 79.4394 24.4624C79.5552 24.281 79.6402 24.0706 79.6942 23.8312C79.7483 23.5919 79.7753 23.3352 79.7753 23.0611V22.9395C79.7753 22.6692 79.7483 22.4164 79.6942 22.1809C79.6402 21.9415 79.5552 21.7311 79.4394 21.5497C79.3275 21.3644 79.1808 21.2196 78.9993 21.1154C78.8217 21.0073 78.6075 20.9532 78.3565 20.9532C78.1095 20.9532 77.8972 21.0073 77.7196 21.1154C77.542 21.2196 77.3972 21.3644 77.2853 21.5497C77.1733 21.7311 77.0903 21.9415 77.0363 22.1809C76.9822 22.4164 76.9552 22.6692 76.9552 22.9395ZM86.174 24.7983V17.2356H87.7144V26.1301H86.3246L86.174 24.7983ZM82.1495 23.0726V22.951C82.1495 22.4723 82.2035 22.038 82.3116 21.6481C82.4236 21.2544 82.5857 20.9166 82.798 20.6347C83.0104 20.3529 83.2671 20.1348 83.5682 19.9804C83.8732 19.826 84.2187 19.7488 84.6047 19.7488C84.9792 19.7488 85.3054 19.824 85.5834 19.9746C85.8652 20.1252 86.1045 20.3394 86.3014 20.6174C86.5022 20.8953 86.6624 21.2254 86.7821 21.6076C86.9017 21.9859 86.9886 22.4028 87.0426 22.8584V23.1885C86.9886 23.6324 86.9017 24.0397 86.7821 24.4103C86.6624 24.7809 86.5022 25.1052 86.3014 25.3831C86.1045 25.6572 85.8652 25.8696 85.5834 26.0201C85.3016 26.1707 84.9715 26.246 84.5932 26.246C84.211 26.246 83.8674 26.1668 83.5624 26.0085C83.2613 25.8503 83.0046 25.6283 82.7922 25.3426C82.5838 25.0569 82.4236 24.7211 82.3116 24.335C82.2035 23.949 82.1495 23.5282 82.1495 23.0726ZM83.684 22.951V23.0726C83.684 23.3429 83.7072 23.5957 83.7535 23.8312C83.7998 24.0667 83.8751 24.2752 83.9793 24.4566C84.0836 24.6342 84.2168 24.7732 84.3789 24.8736C84.5449 24.9739 84.7456 25.0241 84.9811 25.0241C85.2823 25.0241 85.5293 24.9585 85.7223 24.8272C85.9192 24.6921 86.0717 24.5087 86.1798 24.2771C86.2879 24.0416 86.3574 23.7772 86.3883 23.4838V22.5746C86.3728 22.343 86.3323 22.1288 86.2667 21.9319C86.2049 21.735 86.1161 21.5651 86.0003 21.4223C85.8884 21.2794 85.7494 21.1675 85.5834 21.0864C85.4174 21.0054 85.2205 20.9648 84.9927 20.9648C84.7572 20.9648 84.5565 21.0169 84.3905 21.1212C84.2245 21.2215 84.0894 21.3624 83.9851 21.5439C83.8809 21.7253 83.8037 21.9357 83.7535 22.1751C83.7072 22.4144 83.684 22.6731 83.684 22.951ZM92.8276 24.6419V19.8646H94.3679V26.1301H92.9202L92.8276 24.6419ZM93.0245 23.3448L93.4993 23.3332C93.4993 23.754 93.453 24.142 93.3603 24.4972C93.2677 24.8523 93.1229 25.1612 92.926 25.4237C92.733 25.6823 92.4878 25.885 92.1906 26.0317C91.8933 26.1745 91.542 26.246 91.1367 26.246C90.8278 26.246 90.546 26.2035 90.2912 26.1186C90.0364 26.0298 89.8164 25.8927 89.6311 25.7074C89.4496 25.5183 89.3087 25.277 89.2084 24.9836C89.108 24.6863 89.0578 24.3292 89.0578 23.9123V19.8646H90.5866V23.9239C90.5866 24.1323 90.6097 24.3061 90.656 24.445C90.7062 24.584 90.7738 24.6979 90.8587 24.7867C90.9475 24.8716 91.0498 24.9334 91.1656 24.972C91.2853 25.0067 91.4127 25.0241 91.5478 25.0241C91.9184 25.0241 92.2099 24.9508 92.4222 24.8041C92.6384 24.6535 92.7928 24.4528 92.8855 24.2018C92.9781 23.947 93.0245 23.6614 93.0245 23.3448ZM98.294 25.0415C98.5102 25.0415 98.7032 24.999 98.8731 24.9141C99.0429 24.8292 99.1781 24.7095 99.2784 24.5551C99.3827 24.4006 99.4386 24.2211 99.4464 24.0165H100.888C100.881 24.4412 100.761 24.8214 100.529 25.1573C100.298 25.4932 99.9888 25.7595 99.6027 25.9564C99.2205 26.1494 98.792 26.246 98.3172 26.246C97.8346 26.246 97.4138 26.1649 97.0548 26.0027C96.6958 25.8406 96.3966 25.6148 96.1572 25.3252C95.9217 25.0357 95.7442 24.6998 95.6245 24.3176C95.5087 23.9355 95.4508 23.5262 95.4508 23.09V22.9047C95.4508 22.4685 95.5087 22.0593 95.6245 21.6771C95.7442 21.2949 95.9217 20.959 96.1572 20.6695C96.3966 20.38 96.6958 20.1541 97.0548 19.992C97.4138 19.8298 97.8327 19.7488 98.3114 19.7488C98.8171 19.7488 99.2611 19.8472 99.6433 20.0441C100.029 20.241 100.33 20.5189 100.547 20.878C100.767 21.237 100.881 21.6597 100.888 22.1461H99.4464C99.4386 21.9222 99.3885 21.7215 99.2958 21.5439C99.2032 21.3663 99.0719 21.2235 98.902 21.1154C98.7322 21.0073 98.5256 20.9532 98.2824 20.9532C98.0238 20.9532 97.8076 21.0073 97.6339 21.1154C97.464 21.2235 97.3308 21.3721 97.2343 21.5613C97.1417 21.7466 97.076 21.955 97.0374 22.1867C97.0027 22.4144 96.9853 22.6538 96.9853 22.9047V23.09C96.9853 23.3448 97.0027 23.588 97.0374 23.8196C97.076 24.0513 97.1417 24.2597 97.2343 24.445C97.3308 24.6265 97.464 24.7713 97.6339 24.8793C97.8076 24.9874 98.0276 25.0415 98.294 25.0415ZM104.872 19.8646V20.9648H101.282V19.8646H104.872ZM102.243 18.3242H103.778V24.3234C103.778 24.5087 103.803 24.6516 103.853 24.752C103.903 24.8523 103.979 24.9199 104.079 24.9546C104.179 24.9894 104.299 25.0067 104.438 25.0067C104.538 25.0067 104.631 25.001 104.716 24.9894C104.801 24.9778 104.872 24.9662 104.93 24.9546L104.936 26.1012C104.809 26.1437 104.664 26.1784 104.502 26.2054C104.343 26.2324 104.164 26.246 103.963 26.246C103.62 26.246 103.318 26.1881 103.06 26.0722C102.801 25.9526 102.6 25.7615 102.458 25.499C102.315 25.2326 102.243 24.8813 102.243 24.445V18.3242ZM109.337 24.4161C109.337 24.2848 109.302 24.1671 109.233 24.0629C109.163 23.9586 109.032 23.864 108.839 23.7791C108.65 23.6903 108.372 23.6073 108.005 23.5301C107.681 23.4606 107.382 23.3738 107.107 23.2695C106.833 23.1653 106.598 23.0398 106.401 22.8931C106.204 22.7426 106.05 22.5669 105.938 22.3662C105.83 22.1616 105.776 21.9261 105.776 21.6597C105.776 21.4011 105.832 21.1578 105.944 20.9301C106.056 20.6984 106.218 20.4958 106.43 20.322C106.642 20.1445 106.901 20.0055 107.206 19.9051C107.511 19.8009 107.854 19.7488 108.237 19.7488C108.769 19.7488 109.227 19.8356 109.609 20.0093C109.995 20.1831 110.29 20.4224 110.495 20.7274C110.7 21.0285 110.802 21.3682 110.802 21.7466H109.273C109.273 21.5806 109.235 21.43 109.157 21.2949C109.084 21.1598 108.97 21.0517 108.816 20.9706C108.661 20.8857 108.466 20.8432 108.231 20.8432C108.019 20.8432 107.839 20.878 107.692 20.9474C107.55 21.0169 107.441 21.1077 107.368 21.2196C107.295 21.3316 107.258 21.4551 107.258 21.5902C107.258 21.6906 107.277 21.7813 107.316 21.8624C107.358 21.9396 107.426 22.011 107.519 22.0766C107.611 22.1423 107.737 22.2021 107.895 22.2562C108.057 22.3102 108.256 22.3623 108.491 22.4125C108.959 22.5052 109.366 22.6287 109.713 22.7831C110.065 22.9337 110.339 23.1344 110.536 23.3853C110.732 23.6363 110.831 23.9567 110.831 24.3466C110.831 24.6246 110.771 24.8793 110.651 25.111C110.532 25.3387 110.358 25.5376 110.13 25.7074C109.902 25.8773 109.63 26.0105 109.314 26.107C108.997 26.1996 108.64 26.246 108.242 26.246C107.667 26.246 107.181 26.1437 106.783 25.9391C106.386 25.7306 106.084 25.4681 105.88 25.1515C105.675 24.8311 105.573 24.4991 105.573 24.1555H107.038C107.05 24.3987 107.115 24.5937 107.235 24.7404C107.355 24.8871 107.505 24.9932 107.687 25.0589C107.872 25.1206 108.067 25.1515 108.271 25.1515C108.503 25.1515 108.698 25.1206 108.856 25.0589C109.015 24.9932 109.134 24.9064 109.215 24.7983C109.296 24.6863 109.337 24.5589 109.337 24.4161Z" fill="#23212A"/>
<defs>
<linearGradient id="paint0_linear_2_2" x1="-4.07667" y1="9.68361" x2="168.626" y2="49.3385" gradientUnits="userSpaceOnUse">
<stop stop-color="#FFB629"/>
<stop offset="0.507189" stop-color="#FFDA56"/>
<stop offset="1" stop-color="#FFD7A6"/>
</linearGradient>
<linearGradient id="paint1_linear_2_2" x1="-4.07667" y1="9.68361" x2="168.626" y2="49.3385" gradientUnits="userSpaceOnUse">
<stop stop-color="#FFB629"/>
<stop offset="0.507189" stop-color="#FFDA56"/>
<stop offset="1" stop-color="#FFD7A6"/>
</linearGradient>
</defs>
</svg>
